<svg xmlns="http://www.w3.org/2000/svg" viewBox="0 0 953 206.63"><defs><style>.cls-1{fill:#fff;}.cls-2{fill:#b9011b;}</style></defs><title>Asset 2fccg</title><g id="Layer_2" data-name="Layer 2"><g id="GIft_Box" data-name="GIft Box"><path class="cls-1" d="M172.74,93.2v48.13a198.94,198.94,0,0,0-24,3.08V93.2Z"/><path class="cls-1" d="M231.74,93.2V145c-.88-.19-1.77-.37-2.66-.54a196.28,196.28,0,0,0-21.34-2.92V93.2Z"/><path class="cls-2" d="M205.74,93.2v48.2c-5.51-.42-11.2-.63-17-.63-4.41,0-8.75.12-13,.37V93.2Z"/><polygon class="cls-2" points="194.03 109.86 168.66 73.89 184.86 66.81 194.03 109.86"/><polygon class="cls-2" points="188.06 110.33 195.56 66.96 212.02 73.4 188.06 110.33"/><path class="cls-1" d="M260.27,129.14v25.25a112.19,112.19,0,0,0-20.53-7.47V129.14Z"/><path class="cls-1" d="M310.74,129.14v34.74a90.35,90.35,0,0,0-20.53-2.54v-32.2Z"/><path class="cls-2" d="M288.5,129.14v32.2a91.1,91.1,0,0,0-15.38,1.35,54.88,54.88,0,0,0-10.28-7V129.14Z"/><polygon class="cls-2" points="278.48 138.93 256.78 117.79 270.64 113.63 278.48 138.93"/><polygon class="cls-2" points="273.38 139.21 279.79 113.72 293.87 117.5 273.38 139.21"/><path class="cls-1" d="M104.2,162.55a136.77,136.77,0,0,0-16-2.69L86.1,157.8l6.67-6.67Z"/><path class="cls-1" d="M125.34,150.88a90.86,90.86,0,0,0-8.64,3.75l-.63.32-13.56-13.56,6.67-6.67Z"/><path class="cls-2" d="M102,142l13.38,13.38a57.7,57.7,0,0,0-10.09,6.6L93.61,150.29Z"/><polygon class="cls-2" points="103.33 149.84 86.27 146.89 88.8 140.42 103.33 149.84"/><polygon class="cls-2" points="101.8 151.63 91.82 137.49 98.19 134.7 101.8 151.63"/></g><g id="Snow_Pile_FCCG" data-name="Snow Pile &amp; FCCG"><g id="White"><g id="Logo"><g id="g4219"><g id="Page-1"><g id="Group"><path id="path29" class="cls-1" d="M788.15,53.76q0-20.71,14.76-37.13c3.56-3.92,6.53-6,8.53-6a3.64,3.64,0,0,1,2,.65,2.67,2.67,0,0,1,.89,1.74c0,1.09-1.34,2.62-3.78,5.09A47,47,0,0,0,795.05,54c0,15.84,5.42,28.56,16,38.44,2.23,2,3.12,3.49,3.12,4.8a3.88,3.88,0,0,1-.89,2,3.35,3.35,0,0,1-2,.87c-2.45,0-5.86-2.83-10.31-8.36-8.68-10.46-12.76-23-12.76-37.93Z"/><path class="cls-1" d="M924.08,57.24q0,20.71-14.77,37.13c-3.56,3.92-6.53,6-8.53,6a3.64,3.64,0,0,1-2-.65,3.23,3.23,0,0,1-.89-2c0-1.09,1.34-2.61,3.79-4.8A47,47,0,0,0,917.18,57.1c0-10-2.15-18.71-6.37-26.28.17.08.35.16.52.22A7.71,7.71,0,0,0,914.72,34l.42.17A7.62,7.62,0,0,0,916.78,36a7.7,7.7,0,0,0,2.15,1.24,7.73,7.73,0,0,0,2.87,2.68A64.21,64.21,0,0,1,924.08,57.24Z"/><g id="g33"><path id="path37" class="cls-1" d="M888,97.55H824.33a3.91,3.91,0,1,1,0-7.82H888a3.86,3.86,0,0,1,4,3.91c-.57,2.23-1.71,3.91-4,3.91Z"/></g><path id="Shape" class="cls-1" d="M842.91,18.15A12.68,12.68,0,0,1,848.1,28c0,11-15.28,23-15.28,34.45,0,12.28,9.65,20.2,18.84,22.6,1.34.22,1.78-1.09.22-1.53C848.1,82.68,844,77.81,844,70.4c0-7,7-9.67,9.65-12.94,2.89-3.49,2.23-7.92.45-9.23s-.45-3.05,2.45-.87c2.89,2,5.42,6,4.45,9.45-1.11,4.58.45,7.27,2.89,7.7s5.19-.87,4.9-3.05-1.56-4.58-.89-4.58c1.78,0,5.42,4.14,5.42,11S867.69,79.26,865.91,81c-1.11,1.09.22,2.4,1.78,1.74A15.58,15.58,0,0,0,870.8,81c4.45-3.05,11.43-9.45,11.43-21.07,0-12.28-4.67-17.8-9.65-22.38s-6.08-3.49-4.67-1.09c4,6.83,1.56,9.23-1.34,9.23-3.56,0-3.56-7.7-5.19-13.59-2.89-13.15-15.28-15.41-17.51-15.62-1.63-.73-3.71.58-1,1.67h0Z"/></g></g><path class="cls-1" d="M888.16,105.36c0,6.75-3.38,12.87-8.87,17.4l-.46.37-1.27-.63-.87-.44a12,12,0,0,0-1.88-.15h-.33l-.32.08-.33.08-4.18,1a33.45,33.45,0,0,1-9,2.43,36.76,36.76,0,0,1-8.83.06A32.78,32.78,0,0,1,840,121.92h0a12.28,12.28,0,0,0-4.79,1,11.59,11.59,0,0,0-1.37.68c-6.11-4.59-9.91-11-9.91-18.21Z"/><path class="cls-1" d="M888.16,100.6H823.89a4.77,4.77,0,0,0-4.77,4.77c0,8.37,4.24,15.95,11.07,21.38a12.34,12.34,0,0,1,3.61-3.18,11.59,11.59,0,0,1,1.37-.68,12.28,12.28,0,0,1,4.79-1h0c-5.21-2.82-9-7-10.58-11.79h53.23a20.48,20.48,0,0,1-8.58,10.6l-.07,0a29.07,29.07,0,0,1-4.34,2.31l4.18-1,.33-.08.32-.08h.33a12,12,0,0,1,1.88.15l.87.44,1.27.63q2,1,4.07,1.82c.18.15.35.32.52.48l.2-.19c5.79-5.29,9.31-12.26,9.31-19.88A4.77,4.77,0,0,0,888.16,100.6Z"/><path class="cls-1" d="M856,125.81a36.49,36.49,0,0,1-4.17-.24,11.48,11.48,0,0,1,2.48-.78,10.66,10.66,0,0,1,2-.19,10.84,10.84,0,0,1,3.5.59c.28.09.57.2.85.32A36.37,36.37,0,0,1,856,125.81Z"/><path class="cls-1" d="M881.5,174.73q-1.63-.72-3.38-1.3a49.72,49.72,0,0,0-29.37-.36,39.24,39.24,0,0,0-7.25,3l-.76-.67a40.25,40.25,0,0,0-9-5.9A111.87,111.87,0,0,1,837,146.16a12.17,12.17,0,0,0,2.57.34,81.42,81.42,0,0,0,35.51,0h0l.61,0A117.5,117.5,0,0,1,881.5,174.73Z"/></g></g></g><path class="cls-1" d="M850.51,205.91H778.18a36.17,36.17,0,1,1,72.34,0Z"/><path class="cls-1" d="M892.93,194.46c0,4.29-2.19,8.25-5.9,11.45H838.71c-3.7-3.2-5.9-7.16-5.9-11.45,0-4.72,2.65-9,7-12.39,5.51-4.2,13.77-6.87,23-6.87,15.3,0,27.93,7.33,29.81,16.81A12.56,12.56,0,0,1,892.93,194.46Z"/><path class="cls-1" d="M953,205.91H825.23c0-4,2.86-7.76,7.89-11,7.26-4.72,19-8.42,33.22-10.36a168.6,168.6,0,0,1,22.77-1.5C924.4,183,953,193.27,953,205.91Z"/><path class="cls-2" d="M883.55,134.37h0a9.5,9.5,0,0,1-9.5,9.5,78.68,78.68,0,0,1-34.86,0,9.5,9.5,0,0,1-9.5-9.5h0a9.5,9.5,0,0,1,9.5-9.5c21.66,3.77,13.26,5.18,34.86,0A9.5,9.5,0,0,1,883.55,134.37Z"/><path class="cls-2" d="M917.3,150.62l-3,9a87.62,87.62,0,0,1-39.14-20.81l3-9C891.5,140.54,904.69,149.35,917.3,150.62Z"/><path class="cls-2" d="M917.52,133.2l-1.16,9.64a84.15,84.15,0,0,1-42-8l1.16-9.64C887.85,131.4,901.73,134.34,917.52,133.2Z"/><path class="cls-2" d="M938.35.26c-4.12-1.5-16.43,3.49-34,12.65l28.14,22.59C930.55,28.78,931.7,19.41,938.35.26Z"/><path class="cls-2" d="M938.35.26,930,10.36c6.22-.61,10.15-1,13.09,2.09C941.48,7.79,942.61,4.78,938.35.26Z"/><path class="cls-1" d="M941.25,11a2.36,2.36,0,0,1,3.28-.32,2.26,2.26,0,0,1,.33,3.22,2.36,2.36,0,0,1-3.28.32A2.26,2.26,0,0,1,941.25,11Z"/><path class="cls-1" d="M931.73,39.2a4.5,4.5,0,0,1-6.26.62A4.35,4.35,0,0,1,924.12,38a4.46,4.46,0,0,1-2.1-.93,4.35,4.35,0,0,1-1.35-1.84,4.46,4.46,0,0,1-2.1-.93,4.35,4.35,0,0,1-1.35-1.84,4.46,4.46,0,0,1-2.1-.93,4.35,4.35,0,0,1-1.35-1.84,4.46,4.46,0,0,1-2.1-.93,4.35,4.35,0,0,1-1.36-1.89,4.42,4.42,0,0,1-2-.91,4.31,4.31,0,0,1-1.3-1.72h0a4.46,4.46,0,0,1-2.11-.93,4.36,4.36,0,0,1-1.38-1.92,4.44,4.44,0,0,1-2.05-.92,4.29,4.29,0,0,1-.63-6.11,4.47,4.47,0,0,1,6.22-.62,4.32,4.32,0,0,1,1.35,1.85,4.46,4.46,0,0,1,2.12.93,4.35,4.35,0,0,1,1.33,1.79,4.43,4.43,0,0,1,2,.92,4.31,4.31,0,0,1,1.33,1.82,4.46,4.46,0,0,1,2.09.93,4.35,4.35,0,0,1,1.35,1.84,4.46,4.46,0,0,1,2.1.93,4.35,4.35,0,0,1,1.35,1.84,4.46,4.46,0,0,1,2.1.93,4.35,4.35,0,0,1,1.35,1.84,4.46,4.46,0,0,1,2.1.93A4.35,4.35,0,0,1,929,32.12a4.46,4.46,0,0,1,2.1.93A4.32,4.32,0,0,1,931.73,39.2Z"/><path class="cls-1" d="M4.64,206.63H380.49c-6.59-3.26-19.5-5.47-34.35-5.47q-2.23,0-4.39.07A18.56,18.56,0,0,0,342,198c0-17.48-23.93-31.66-53.46-31.66a86.72,86.72,0,0,0-17.52,1.74c-12.87-13.05-45.09-22.3-82.82-22.3s-70,9.27-82.85,22.34a141.9,141.9,0,0,0-35.08-4.19C31.47,163.92,0,178,0,195.38,0,199.34,1.64,203.13,4.64,206.63Z"/></g></g></svg>